<?xml version="1.0" encoding="UTF-8"?>
<svg version="1.1" xmlns="http://www.w3.org/2000/svg" width="1024" height="1024">
<path d="M0 0 C337.92 0 675.84 0 1024 0 C1024 337.92 1024 675.84 1024 1024 C686.08 1024 348.16 1024 0 1024 C0 686.08 0 348.16 0 0 Z " fill="#FEFEFE" transform="translate(0,0)"/>
<path d="M0 0 C11.55 0 23.1 0 35 0 C37.69970279 5.39940557 40.00682178 10.40721793 41.92578125 16.0546875 C42.18985275 16.81641769 42.45392426 17.57814789 42.72599792 18.36296082 C43.29506477 20.0059157 43.86175273 21.64969615 44.42626953 23.29421997 C45.96653635 27.77961061 47.52577092 32.25842029 49.08203125 36.73828125 C49.40450836 37.66811325 49.72698547 38.59794525 50.05923462 39.55595398 C53.17853601 48.5406991 56.363188 57.50154998 59.56744385 66.45629883 C60.49899057 69.05967896 61.42902401 71.66359609 62.35888672 74.26757812 C65.23443132 82.31369452 68.12411373 90.35439432 71.04391479 98.38456726 C72.36282523 102.01267174 73.67752405 105.64229696 74.9921875 109.27194214 C75.91842054 111.82246187 76.85167579 114.37033862 77.78515625 116.91821289 C78.34540432 118.46357678 78.90531907 120.00906155 79.46484375 121.5546875 C79.7234166 122.25366653 79.98198944 122.95264557 80.24839783 123.67280579 C81.45621988 127.03236091 82 129.37292675 82 133 C72.1 133 62.2 133 52 133 C50.515 128.6275 49.03 124.255 47.5 119.75 C47.03013672 118.37682617 46.56027344 117.00365234 46.07617188 115.58886719 C45.71072266 114.50250977 45.34527344 113.41615234 44.96875 112.296875 C44.59169922 111.18666992 44.21464844 110.07646484 43.82617188 108.93261719 C43 106 43 106 43 102 C17.755 102.495 17.755 102.495 -8 103 C-10.92030439 112.49784785 -10.92030439 112.49784785 -13.83374023 121.99780273 C-14.19669189 123.17286377 -14.55964355 124.3479248 -14.93359375 125.55859375 C-15.30540771 126.76829834 -15.67722168 127.97800293 -16.06030273 129.22436523 C-17 132 -17 132 -18 133 C-20.14558827 133.08775605 -22.29404421 133.10695219 -24.44140625 133.09765625 C-25.74658203 133.09443359 -27.05175781 133.09121094 -28.39648438 133.08789062 C-29.7851569 133.07953401 -31.17382877 133.07106905 -32.5625 133.0625 C-33.95507656 133.05748666 -35.34765481 133.05292347 -36.74023438 133.04882812 C-40.1601987 133.03699434 -43.58007844 133.0205088 -47 133 C-46.33684341 126.89440834 -44.10424109 121.40076286 -41.984375 115.68359375 C-41.57705139 114.57147018 -41.16972778 113.45934662 -40.75006104 112.31352234 C-39.87560315 109.92706298 -38.99888043 107.54143253 -38.12011719 105.15655518 C-36.04480283 99.52330814 -33.98314563 93.88508033 -31.92259216 88.24642181 C-31.46310282 86.98913986 -31.00343636 85.73192261 -30.54359436 84.47476959 C-26.61051216 73.72066153 -22.7672909 62.9381544 -19 52.125 C-14.8264381 40.15916743 -10.58160056 28.22211695 -6.25 16.3125 C-5.98848145 15.59233704 -5.72696289 14.87217407 -5.45751953 14.13018799 C-4.7284718 12.12397083 -3.99751981 10.11846128 -3.265625 8.11328125 C-2.85086914 6.97673096 -2.43611328 5.84018066 -2.00878906 4.66918945 C-1 2 -1 2 0 0 Z " fill="#00C0E4" transform="translate(720,429)"/>
<path d="M0 0 C1.18958991 0.80026958 2.3554374 1.63655804 3.5 2.5 C4.32371094 3.10585938 5.14742187 3.71171875 5.99609375 4.3359375 C14.01173608 11.26365334 18.46429553 22.32147765 20.5 32.5 C20.5 39.43 20.5 46.36 20.5 53.5 C-2.6 53.5 -25.7 53.5 -49.5 53.5 C-45.51394076 66.2465902 -45.51394076 66.2465902 -36.5625 74.4375 C-29.54899243 76.95797928 -20.00299194 76.63353128 -12.9375 74.4375 C-8.24890218 71.79483578 -4.91575026 68.33150053 -2.5 63.5 C0.43912216 63.94940706 3.37598754 64.40910023 6.3125 64.875 C7.14587891 65.00132812 7.97925781 65.12765625 8.83789062 65.2578125 C10.04155273 65.45117188 10.04155273 65.45117188 11.26953125 65.6484375 C12.00792236 65.76364746 12.74631348 65.87885742 13.50708008 65.99755859 C15.5 66.5 15.5 66.5 18.5 68.5 C14.49851719 79.98660948 9.22434479 87.41102713 -1.5 93.5 C-15.3023251 99.46208031 -33.73561007 99.98556462 -47.8125 94.76171875 C-52.08508142 92.75584114 -55.79092623 90.40921626 -59.5 87.5 C-60.51320313 86.78263672 -60.51320313 86.78263672 -61.546875 86.05078125 C-70.63747228 79.05665892 -76.02534049 67.88081022 -78.1015625 56.78515625 C-80.1529359 39.87138144 -76.33461856 25.15776176 -66.875 11.08203125 C-51.33638383 -8.22918163 -20.88050672 -12.51280829 0 0 Z " fill="#01719F" transform="translate(609.5,466.5)"/>
<path d="M0 0 C9.57 0 19.14 0 29 0 C29.05607422 7.15042969 29.05607422 7.15042969 29.11328125 14.4453125 C29.14356949 17.47138982 29.17472279 20.49740893 29.20898438 23.5234375 C29.263243 28.32288633 29.3143554 33.12222 29.34643555 37.921875 C29.37251025 41.79297374 29.4129415 45.66368427 29.46318626 49.53454208 C29.47982694 51.00880975 29.49135864 52.48314452 29.49761391 53.95749283 C29.507286 56.02822485 29.5353794 58.09797 29.56762695 60.16845703 C29.57873001 61.34538116 29.58983307 62.5223053 29.60127258 63.7348938 C30.11919029 67.97602759 31.393028 71.55178909 34.62109375 74.4609375 C41.19047065 77.76681749 48.2257378 78.34924801 55.3359375 76.33984375 C61.07798123 73.7988244 65.37499762 69.43225263 68.05673218 63.76802063 C69.12141682 60.64370218 69.27788251 58.1304583 69.31884766 54.83276367 C69.33871735 53.61187546 69.35858704 52.39098724 69.37905884 51.13310242 C69.39061005 49.82460831 69.40216125 48.5161142 69.4140625 47.16796875 C69.43278547 45.80746806 69.45235973 44.44697883 69.4727478 43.08650208 C69.52395602 39.51753521 69.56364187 35.94853074 69.60089111 32.37939453 C69.64100201 28.73265403 69.69195663 25.08606596 69.7421875 21.43945312 C69.83983294 14.29302736 69.91943774 7.14672052 70 0 C79.24 0 88.48 0 98 0 C98 33 98 66 98 100 C88.76 100 79.52 100 70 100 C69.67 96.37 69.34 92.74 69 89 C67.741875 90.051875 66.48375 91.10375 65.1875 92.1875 C53.44569152 101.34685377 41.4714882 103.10246605 27 102 C18.21017508 100.44947069 11.7774049 95.68305216 6 89 C1.27382825 81.67714997 -0.12828256 75.30186261 -0.11352539 66.6394043 C-0.11367142 65.91690994 -0.11381744 65.19441559 -0.1139679 64.45002747 C-0.11327422 62.07472678 -0.10550745 59.69950565 -0.09765625 57.32421875 C-0.09579013 55.67226708 -0.09436714 54.02031485 -0.09336853 52.36836243 C-0.08955861 48.02992208 -0.07974139 43.69151545 -0.06866455 39.35308838 C-0.0584176 34.92224585 -0.05386388 30.49139785 -0.04882812 26.06054688 C-0.03811771 17.37368075 -0.0205333 8.68684846 0 0 Z " fill="#024B7A" transform="translate(348,462)"/>
<path d="M0 0 C8.68721071 6.06778458 14.32268781 13.31242186 16.796875 23.6796875 C17.31458633 29.44300579 17.26548361 35.16013207 17.1875 40.94140625 C17.18002364 42.58477586 17.17433732 44.22815448 17.17034912 45.87153625 C17.15520234 50.160811 17.11601781 54.44952903 17.0715332 58.73858643 C17.03034149 63.12968417 17.01228749 67.5208734 16.9921875 71.91210938 C16.94951045 80.50158388 16.87925311 89.09050193 16.796875 97.6796875 C7.556875 97.6796875 -1.683125 97.6796875 -11.203125 97.6796875 C-11.24050781 93.1525 -11.27789062 88.6253125 -11.31640625 83.9609375 C-11.34670775 81.08069221 -11.37786968 78.2005071 -11.41210938 75.3203125 C-11.46628985 70.75589145 -11.51740485 66.19158941 -11.54956055 61.62695312 C-11.57570645 57.94386864 -11.61618673 54.26118731 -11.66631126 50.57835388 C-11.68290417 49.17830955 -11.69446539 47.77819561 -11.70073891 46.37806702 C-11.73774142 38.8741073 -11.79256099 32.45877942 -15.203125 25.6796875 C-20.19212668 20.81541086 -24.57180223 20.32749056 -31.28515625 20.3984375 C-38.41132387 21.08529703 -44.22352506 24.70008756 -49.203125 29.6796875 C-51.73032444 33.94939077 -52.58508498 37.11176589 -52.63549805 42.05224609 C-52.65529221 43.29307953 -52.67508636 44.53391296 -52.69548035 45.81234741 C-52.70224847 47.15093839 -52.70869553 48.48953103 -52.71484375 49.828125 C-52.73170502 51.209621 -52.7498572 52.59110179 -52.76924133 53.9725647 C-52.81659097 57.5925013 -52.84649699 61.21237622 -52.87268066 64.83251953 C-52.9025626 68.53300061 -52.94890701 72.23327373 -52.99414062 75.93359375 C-53.081548 83.18230748 -53.1416195 90.43052259 -53.203125 97.6796875 C-62.443125 97.6796875 -71.683125 97.6796875 -81.203125 97.6796875 C-81.203125 64.6796875 -81.203125 31.6796875 -81.203125 -2.3203125 C-71.963125 -2.3203125 -62.723125 -2.3203125 -53.203125 -2.3203125 C-52.873125 0.9796875 -52.543125 4.2796875 -52.203125 7.6796875 C-51.048125 6.6071875 -49.893125 5.5346875 -48.703125 4.4296875 C-35.1932629 -7.36463656 -15.41013261 -9.23515039 0 0 Z " fill="#003364" transform="translate(313.203125,464.3203125)"/>
<path d="M0 0 C0 8.91 0 17.82 0 27 C-2.92875 27.226875 -5.8575 27.45375 -8.875 27.6875 C-17.89193369 28.55044873 -24.59653719 30.21917758 -31.58129883 36.21630859 C-35.69131978 41.26184896 -34.7277358 47.97528386 -34.70703125 54.1484375 C-34.72015815 55.52993947 -34.73546544 56.91142229 -34.75285339 58.2928772 C-34.79260182 61.91296573 -34.80288711 65.53255105 -34.80688477 69.15283203 C-34.81623565 72.85334196 -34.85339182 76.55356765 -34.88867188 80.25390625 C-34.9557553 87.50298224 -34.97666804 94.75012315 -35 102 C-44.57 102 -54.14 102 -64 102 C-64 69 -64 36 -64 2 C-54.43 2 -44.86 2 -35 2 C-35 5.96 -35 9.92 -35 14 C-34.67 13.67 -34.34 13.34 -34 13 C-23.12246166 2.38954408 -15.50618817 0 0 0 Z " fill="#025F8D" transform="translate(529,460)"/>
<path d="M0 0 C8.91 0 17.82 0 27 0 C27 43.89 27 87.78 27 133 C18.42 133 9.84 133 1 133 C0 132 0 132 -0.12304783 129.81545925 C-0.12212604 128.84296765 -0.12120424 127.87047606 -0.12025452 126.86851501 C-0.12162918 125.75647202 -0.12300385 124.64442902 -0.12442017 123.49868774 C-0.12082489 122.26798553 -0.11722961 121.03728333 -0.11352539 119.76928711 C-0.11367142 118.48166977 -0.11381744 117.19405243 -0.1139679 115.86741638 C-0.11425586 112.3262524 -0.10835936 108.78512201 -0.10139394 105.24396586 C-0.09516017 101.54705012 -0.09455658 97.85013369 -0.09336853 94.1532135 C-0.09025528 87.14796101 -0.08204199 80.14272405 -0.07201904 73.13747841 C-0.0608577 65.16421124 -0.0553474 57.19094335 -0.05032361 49.21767032 C-0.03985936 32.81176968 -0.02151397 16.40589044 0 0 Z " fill="#01CBF8" transform="translate(821,429)"/>
<path d="M0 0 C9.57 0 19.14 0 29 0 C29 33 29 66 29 100 C19.43 100 9.86 100 0 100 C0 67 0 34 0 0 Z " fill="#032A5B" transform="translate(176,462)"/>
<path d="M0 0 C2.1463028 3.2194542 2.91933744 5.79327924 3.953125 9.51171875 C4.32608091 10.83370749 4.6992159 12.15564571 5.07250977 13.47753906 C5.26499298 14.16626099 5.4574762 14.85498291 5.65579224 15.5645752 C8.66698356 26.32265198 11.79307652 36.93526688 16.00390625 47.296875 C17 50 17 50 17 53 C5.78 53 -5.44 53 -17 53 C-15.494375 48.33875 -13.98875 43.6775 -12.4375 38.875 C-8.25809536 25.9272688 -4.11009146 12.96992438 0 0 Z " fill="#FAFDFE" transform="translate(737,456)"/>
<path d="M0 0 C3.3958644 1.93098172 5.05307121 3.57133036 7.1875 6.8125 C7.6 7.43125 8.0125 8.05 8.4375 8.6875 C10.03421988 13.21153967 9.44540786 17.01162821 8 21.5 C5.54281247 25.99072203 3.05542539 27.963443 -1.5625 30.0625 C-7.05911865 31.33095046 -11.8032512 31.57070709 -17.125 29.5625 C-20.94138112 27.07741462 -23.3549304 25.1852088 -24.8125 20.8125 C-25.31692239 15.5450072 -25.4841659 11.18070832 -23.125 6.375 C-16.33504872 -1.14900007 -9.65401713 -3.00698894 0 0 Z " fill="#02295B" transform="translate(199.8125,424.1875)"/>
<path d="M0 0 C4.6462783 3.49279389 7.31963094 7.56178053 8.68359375 13.265625 C8.68359375 14.585625 8.68359375 15.905625 8.68359375 17.265625 C-5.50640625 17.265625 -19.69640625 17.265625 -34.31640625 17.265625 C-31.54957697 8.04286073 -30.03473712 3.19099014 -22.19140625 -1.671875 C-15.00557328 -4.22117273 -6.5820676 -3.88629355 0 0 Z " fill="#FCFDFD" transform="translate(595.31640625,483.734375)"/>
<path d="M0 0 C1.7455579 5.2366737 -1.35259045 9.90523455 -3.5 14.75 C-5.49473871 19.43938574 -6.7561661 23.8012154 -7.4453125 28.84375 C-8.11419886 31.44392795 -9.35442245 32.90104904 -11 35 C-12.09727964 37.99258082 -13.06898201 40.95488001 -14 44 C-14.6418 46.04981514 -15.28637906 48.09874669 -15.9309082 50.14770508 C-16.95933747 53.43011677 -17.97872402 56.71535563 -19 60 C-11.08 60 -3.16 60 5 60 C6.97186696 55.39897708 8.6099802 51.29435909 10 46.5625 C11.48446964 41.6180742 13.11569796 36.80497021 15 32 C16.25151604 35.75454812 15.5546734 37.20134976 14.3828125 40.9453125 C14.02316406 42.10417969 13.66351562 43.26304687 13.29296875 44.45703125 C12.90753906 45.66746094 12.52210938 46.87789062 12.125 48.125 C11.74730469 49.34316406 11.36960937 50.56132813 10.98046875 51.81640625 C8.15079647 60.84920353 8.15079647 60.84920353 7 62 C4.85441173 62.08775605 2.70595579 62.10695219 0.55859375 62.09765625 C-0.74658203 62.09443359 -2.05175781 62.09121094 -3.39648438 62.08789062 C-4.7851569 62.07953401 -6.17382877 62.07106905 -7.5625 62.0625 C-8.95507656 62.05748666 -10.34765481 62.05292347 -11.74023438 62.04882812 C-15.1601987 62.03699434 -18.58007844 62.0205088 -22 62 C-21.40978914 57.8859348 -20.48834258 54.18833893 -19.06640625 50.28588867 C-18.47073853 48.63969795 -18.47073853 48.63969795 -17.86303711 46.96025085 C-17.43385986 45.79129776 -17.00468262 44.62234467 -16.5625 43.41796875 C-16.12236572 42.20804764 -15.68223145 40.99812653 -15.22875977 39.75154114 C-14.30060443 37.20108401 -13.36895456 34.6519413 -12.43457031 32.10375977 C-11.23526767 28.83271138 -10.04312772 25.55910933 -8.85334778 22.28458691 C-7.71781316 19.16125374 -6.57758287 16.03964472 -5.4375 12.91796875 C-4.79373413 11.14935738 -4.79373413 11.14935738 -4.13696289 9.34501648 C-3.73985107 8.2633168 -3.34273926 7.18161713 -2.93359375 6.06713867 C-2.58353271 5.11038742 -2.23347168 4.15363617 -1.87280273 3.16789246 C-1 1 -1 1 0 0 Z " fill="#09AFD6" transform="translate(695,500)"/>
<path d="M0 0 C0 3 0 3 -2.5 5.6875 C-3.325 6.450625 -4.15 7.21375 -5 8 C-5.66 7.67 -6.32 7.34 -7 7 C-4.69 4.69 -2.38 2.38 0 0 Z " fill="#05396E" transform="translate(415,529)"/>
</svg>
